REM DIRINDEX 1\2,1\3,1\4,1\5,1\6
REM DIRNAME folder01,folder02,folder03,folder04,folder05,folder06
TITLE ""
FILE "CD2-33.mp3" MP3
  TRACK 01 AUDIO
    TITLE "6:cjc091_2113"
    INDEX 01 00:00:00
  TRACK 02 AUDIO
    TITLE "0:"
    INDEX 01 00:02:02
  TRACK 03 AUDIO
    TITLE "2:cjc091_2114"
    INDEX 01 00:03:29
  TRACK 04 AUDIO
    TITLE "0:"
    INDEX 01 00:05:05
  TRACK 05 AUDIO
    TITLE "3:cjc091_2115"
    INDEX 01 00:05:22
  TRACK 06 AUDIO
    TITLE "0:"
    INDEX 01 00:06:39
  TRACK 07 AUDIO
    TITLE "4:cjc091_2116"
    INDEX 01 00:06:61
  TRACK 08 AUDIO
    TITLE "0:"
    INDEX 01 00:09:22
  TRACK 09 AUDIO
    TITLE "2:cjc091_2117"
    INDEX 01 00:10:33
  TRACK 10 AUDIO
    TITLE "0:"
    INDEX 01 00:11:46
  TRACK 11 AUDIO
    TITLE "3:cjc091_2118"
    INDEX 01 00:11:62
  TRACK 12 AUDIO
    TITLE "0:"
    INDEX 01 00:13:10
  TRACK 13 AUDIO
    TITLE "4:cjc091_2119"
    INDEX 01 00:13:32
  TRACK 14 AUDIO
    TITLE "0:"
    INDEX 01 00:16:38
  TRACK 15 AUDIO
    TITLE "2:cjc091_2120"
    INDEX 01 00:17:47
  TRACK 16 AUDIO
    TITLE "0:"
    INDEX 01 00:19:26
  TRACK 17 AUDIO
    TITLE "3:cjc091_2121"
    INDEX 01 00:19:48
  TRACK 18 AUDIO
    TITLE "0:"
    INDEX 01 00:21:37
  TRACK 19 AUDIO
    TITLE "4:cjc091_2122"
    INDEX 01 00:21:57
  TRACK 20 AUDIO
    TITLE "0:"
    INDEX 01 00:24:41
  TRACK 21 AUDIO
    TITLE "2:cjc091_2123"
    INDEX 01 00:25:52
  TRACK 22 AUDIO
    TITLE "0:"
    INDEX 01 00:27:14
  TRACK 23 AUDIO
    TITLE "3:cjc091_2124"
    INDEX 01 00:27:32
  TRACK 24 AUDIO
    TITLE "0:"
    INDEX 01 00:28:72
  TRACK 25 AUDIO
    TITLE "4:cjc091_2125"
    INDEX 01 00:29:21
  TRACK 26 AUDIO
    TITLE "0:"
    INDEX 01 00:33:44
  TRACK 27 AUDIO
    TITLE "2:cjc091_2126"
    INDEX 01 00:34:57
  TRACK 28 AUDIO
    TITLE "0:"
    INDEX 01 00:36:38
  TRACK 29 AUDIO
    TITLE "3:cjc091_2127"
    INDEX 01 00:36:56
  TRACK 30 AUDIO
    TITLE "0:"
    INDEX 01 00:38:59
  TRACK 31 AUDIO
    TITLE "4:cjc091_2128"
    INDEX 01 00:39:07
  TRACK 32 AUDIO
    TITLE "0:"
    INDEX 01 00:42:27
  TRACK 33 AUDIO
    TITLE "2:cjc091_2129"
    INDEX 01 00:43:44
  TRACK 34 AUDIO
    TITLE "0:"
    INDEX 01 00:46:02
  TRACK 35 AUDIO
    TITLE "3:cjc091_2130"
    INDEX 01 00:46:23
  TRACK 36 AUDIO
    TITLE "0:"
    INDEX 01 00:48:61
  TRACK 37 AUDIO
    TITLE "4:cjc091_2131"
    INDEX 01 00:49:10
  TRACK 38 AUDIO
    TITLE "0:"
    INDEX 01 00:53:39
  TRACK 39 AUDIO
    TITLE "2:cjc091_2132"
    INDEX 01 00:54:54
  TRACK 40 AUDIO
    TITLE "0:"
    INDEX 01 00:56:45
  TRACK 41 AUDIO
    TITLE "3:cjc091_2133"
    INDEX 01 00:57:03
  TRACK 42 AUDIO
    TITLE "0:"
    INDEX 01 00:59:39
  TRACK 43 AUDIO
    TITLE "4:cjc091_2134"
    INDEX 01 00:59:65
  TRACK 44 AUDIO
    TITLE "0:"
    INDEX 01 01:05:60
  TRACK 45 AUDIO
    TITLE "2:cjc091_2135"
    INDEX 01 01:06:73
  TRACK 46 AUDIO
    TITLE "0:"
    INDEX 01 01:08:46
  TRACK 47 AUDIO
    TITLE "3:cjc091_2136"
    INDEX 01 01:08:72
  TRACK 48 AUDIO
    TITLE "0:"
    INDEX 01 01:11:03
  TRACK 49 AUDIO
    TITLE "4:cjc091_2137"
    INDEX 01 01:11:27
  TRACK 50 AUDIO
    TITLE "0:"
    INDEX 01 01:15:11
  TRACK 51 AUDIO
    TITLE "2:cjc091_2138"
    INDEX 01 01:16:22
  TRACK 52 AUDIO
    TITLE "0:"
    INDEX 01 01:17:51
  TRACK 53 AUDIO
    TITLE "3:cjc091_2139"
    INDEX 01 01:17:73
  TRACK 54 AUDIO
    TITLE "0:"
    INDEX 01 01:19:34
  TRACK 55 AUDIO
    TITLE "4:cjc091_2140"
    INDEX 01 01:19:48
  TRACK 56 AUDIO
    TITLE "0:"
    INDEX 01 01:24:49
  TRACK 57 AUDIO
    TITLE "2:cjc091_2141"
    INDEX 01 01:25:62
  TRACK 58 AUDIO
    TITLE "0:"
    INDEX 01 01:27:32
  TRACK 59 AUDIO
    TITLE "3:cjc091_2142"
    INDEX 01 01:27:50
  TRACK 60 AUDIO
    TITLE "0:"
    INDEX 01 01:28:71
  TRACK 61 AUDIO
    TITLE "4:cjc091_2143"
    INDEX 01 01:29:15
  TRACK 62 AUDIO
    TITLE "0:"
    INDEX 01 01:33:11
  TRACK 63 AUDIO
    TITLE "2:cjc091_2144"
    INDEX 01 01:34:18
  TRACK 64 AUDIO
    TITLE "0:"
    INDEX 01 01:36:37
  TRACK 65 AUDIO
    TITLE "3:cjc091_2145"
    INDEX 01 01:36:52
  TRACK 66 AUDIO
    TITLE "0:"
    INDEX 01 01:38:42
  TRACK 67 AUDIO
    TITLE "4:cjc091_2146"
    INDEX 01 01:38:59
  TRACK 68 AUDIO
    TITLE "0:"
    INDEX 01 01:41:18
  TRACK 69 AUDIO
    TITLE "2:cjc091_2147"
    INDEX 01 01:42:37
  TRACK 70 AUDIO
    TITLE "0:"
    INDEX 01 01:44:07
  TRACK 71 AUDIO
    TITLE "3:cjc091_2148"
    INDEX 01 01:44:24
  TRACK 72 AUDIO
    TITLE "0:"
    INDEX 01 01:45:73
  TRACK 73 AUDIO
    TITLE "4:cjc091_2149"
    INDEX 01 01:46:23
  TRACK 74 AUDIO
    TITLE "0:"
    INDEX 01 01:48:61
  TRACK 75 AUDIO
    TITLE "2:cjc091_2150"
    INDEX 01 01:50:02
  TRACK 76 AUDIO
    TITLE "0:"
    INDEX 01 01:51:30
  TRACK 77 AUDIO
    TITLE "3:cjc091_2151"
    INDEX 01 01:51:44
  TRACK 78 AUDIO
    TITLE "0:"
    INDEX 01 01:53:27
  TRACK 79 AUDIO
    TITLE "4:cjc091_2152"
    INDEX 01 01:53:45
  TRACK 80 AUDIO
    TITLE "0:"
    INDEX 01 01:56:57
  TRACK 81 AUDIO
    TITLE "2:cjc091_2153"
    INDEX 01 01:57:72
  TRACK 82 AUDIO
    TITLE "0:"
    INDEX 01 01:59:18
  TRACK 83 AUDIO
    TITLE "3:cjc091_2154"
    INDEX 01 01:59:34
  TRACK 84 AUDIO
    TITLE "0:"
    INDEX 01 02:00:35
  TRACK 85 AUDIO
    TITLE "4:cjc091_2155"
    INDEX 01 02:00:55
  TRACK 86 AUDIO
    TITLE "0:"
    INDEX 01 02:03:59
  TRACK 87 AUDIO
    TITLE "2:cjc091_2156"
    INDEX 01 02:04:68
  TRACK 88 AUDIO
    TITLE "0:"
    INDEX 01 02:06:46
  TRACK 89 AUDIO
    TITLE "3:cjc091_2157"
    INDEX 01 02:06:67
  TRACK 90 AUDIO
    TITLE "0:"
    INDEX 01 02:08:62
  TRACK 91 AUDIO
    TITLE "4:cjc091_2158"
    INDEX 01 02:09:09
  TRACK 92 AUDIO
    TITLE "0:"
    INDEX 01 02:13:28
